# xmcd
#
# Track frame offsets:
# 182
# 20250
# 35875
# 56270
# 70165
# 85240
# 100567
# 112430
# 132820
# 151822
# 175062
# 192225
# 209412
# 230992
# 243965
#
# Disc length: 3502 seconds
#
#
# Revision: 0
# Processed by: cddbd v1.5.1PL0 Copyright (c) Steve Scherf et al.
# Submitted via: FreeRIP 2.941 
#
DISCID=cb0dac0f
DTITLE=K.D. Lang - live usa
DYEAR=1993
DGENRE=Folk/Rock
TTITLE0=constant craving
TTITLE1=the mind of love
TTITLE2=save me
TTITLE3=big big love
TTITLE4=still thrives this love
TTITLE5=trail of broken hearts
TTITLE6=don´t let the stars get in your eyes
TTITLE7=miss chateleine
TTITLE8=luck in my eyes
TTITLE9=outside myself
TTITLE10=big boned gal
TTITLE11=wash me clean
TTITLE12=pullin´ back the reins
TTITLE13=ridin´ the rails
TTITLE14=crying
EXTD=
EXTT0=
EXTT1=
EXTT2=
EXTT3=
EXTT4=
EXTT5=
EXTT6=
EXTT7=
EXTT8=
EXTT9=
EXTT10=
EXTT11=
EXTT12=
EXTT13=
EXTT14=
PLAYORDER=
